<?xml version="1.0" standalone="no"?>
<!DOCTYPE svg PUBLIC "-//W3C//DTD SVG 20010904//EN"
 "http://www.w3.org/TR/2001/REC-SVG-20010904/DTD/svg10.dtd">
<svg version="1.0" xmlns="http://www.w3.org/2000/svg"
 width="137.000000pt" height="98.000000pt" viewBox="0 0 137.000000 98.000000"
 preserveAspectRatio="xMidYMid meet">

<g transform="translate(0.000000,98.000000) scale(0.100000,-0.100000)"
fill="#000000" stroke="none">
<path d="M553 682 c-68 -87 -163 -207 -212 -268 l-89 -112 36 -6 c21 -3 53 -6
72 -5 l35 0 -44 20 c-56 25 -49 32 19 19 77 -15 79 -13 27 20 -26 16 -47 31
-47 34 0 2 28 -4 63 -15 34 -10 64 -19 66 -19 2 0 -14 14 -35 31 -64 51 -61
63 7 29 l63 -32 -42 48 c-23 26 -40 49 -37 52 2 3 24 -11 47 -30 68 -55 71
-54 38 12 -17 34 -30 66 -28 70 2 5 27 -22 56 -61 28 -39 52 -69 52 -67 0 1
-14 48 -30 103 -16 55 -29 105 -29 110 0 6 24 -37 54 -95 45 -89 54 -101 58
-80 7 31 30 391 25 395 -2 2 -58 -67 -125 -153z"/>
<path d="M727 673 c6 -93 13 -188 15 -213 l3 -45 53 103 c29 56 54 102 56 102
4 0 -29 -127 -48 -187 -4 -13 -6 -23 -4 -23 2 0 26 30 53 67 27 36 51 61 53
55 2 -6 -13 -41 -34 -78 l-37 -66 62 47 c33 27 63 46 65 44 3 -3 -15 -26 -38
-52 -24 -26 -42 -47 -40 -47 3 0 33 14 67 30 l62 31 -48 -45 -48 -45 66 19
c36 10 65 17 65 14 0 -2 -21 -18 -47 -35 -44 -27 -45 -30 -18 -25 107 19 111
19 90 3 -11 -8 -37 -20 -58 -27 -21 -6 -37 -13 -35 -15 3 -3 151 14 155 18 2
3 -58 79 -354 455 -36 45 -66 82 -67 82 -1 0 4 -75 11 -167z"/>
<path d="M150 195 c0 -47 15 -60 28 -24 l8 20 18 -20 c11 -12 25 -21 33 -21
11 0 10 7 -6 28 -19 27 -19 30 -3 45 14 15 14 17 1 17 -8 0 -20 -5 -27 -12 -9
-9 -15 -9 -24 0 -21 21 -28 13 -28 -33z"/>
<path d="M286 200 c-21 -52 -21 -52 9 -38 19 8 31 8 51 -1 24 -10 26 -10 19 6
-4 10 -12 30 -17 46 -15 40 -43 35 -62 -13z m44 -11 c0 -5 -4 -9 -10 -9 -5 0
-10 7 -10 16 0 8 5 12 10 9 6 -3 10 -10 10 -16z"/>
<path d="M390 201 c0 -25 5 -41 15 -45 9 -3 15 0 15 9 0 24 18 26 39 4 l21
-22 -2 39 c-1 45 -10 54 -55 54 -32 0 -33 -2 -33 -39z m70 9 c0 -5 -9 -10 -20
-10 -11 0 -20 5 -20 10 0 6 9 10 20 10 11 0 20 -4 20 -10z"/>
<path d="M510 196 c0 -36 3 -44 15 -40 8 4 15 14 16 23 0 11 3 9 9 -6 13 -31
28 -29 37 5 l7 27 6 -24 c11 -45 30 -36 30 13 0 40 -3 46 -20 46 -13 0 -24
-10 -31 -27 l-10 -27 -12 24 c-7 14 -20 26 -30 28 -14 3 -17 -4 -17 -42z"/>
<path d="M667 198 c-18 -46 -16 -58 8 -38 12 10 21 10 42 1 14 -6 28 -10 30
-7 8 8 -37 86 -51 86 -7 0 -20 -19 -29 -42z m43 -3 c0 -8 -7 -15 -15 -15 -9 0
-12 6 -9 15 4 8 10 15 15 15 5 0 9 -7 9 -15z"/>
<path d="M810 231 c0 -5 9 -11 20 -14 15 -4 20 -14 20 -36 0 -21 5 -31 15 -31
10 0 15 11 15 35 0 24 5 35 15 35 8 0 15 5 15 10 0 6 -22 10 -50 10 -27 0 -50
-4 -50 -9z"/>
<path d="M940 195 c0 -45 0 -45 34 -45 19 0 38 5 41 10 4 6 -7 10 -24 10 -38
0 -41 20 -3 21 20 1 22 2 7 6 -36 9 -41 23 -7 23 18 0 32 5 32 10 0 6 -18 10
-40 10 l-40 0 0 -45z"/>
<path d="M1053 228 c-22 -29 -23 -38 -3 -58 24 -24 49 -26 76 -4 18 14 17 15
-18 9 -36 -6 -38 -4 -38 20 0 25 2 26 38 19 34 -7 36 -6 23 9 -16 20 -64 22
-78 5z"/>
<path d="M1162 198 c3 -42 28 -68 28 -29 0 14 6 21 20 21 13 0 20 -7 20 -20 0
-11 7 -20 15 -20 11 0 15 12 15 45 0 33 -4 45 -15 45 -8 0 -15 -7 -15 -15 0
-8 -9 -15 -20 -15 -11 0 -20 7 -20 15 0 8 -7 15 -16 15 -12 0 -14 -9 -12 -42z"/>
</g>
</svg>
